<svg width="24" height="24" viewBox="0 0 24 24" fill="none" xmlns="http://www.w3.org/2000/svg">
<path fill-rule="evenodd" clip-rule="evenodd" d="M12 4.19412L9.91838 8.25902C9.69589 8.6935 9.27589 8.99254 8.79253 9.06064L4.20568 9.70687L7.48697 12.7875C7.85658 13.1345 8.0259 13.6447 7.93709 14.1438L7.15568 18.5354L11.3218 16.4235C11.7481 16.2074 12.2519 16.2074 12.6782 16.4235L16.8443 18.5354L16.0629 14.1438C15.9741 13.6447 16.1434 13.1345 16.513 12.7875L19.7943 9.70687L15.2075 9.06064C14.7241 8.99254 14.3041 8.6935 14.0816 8.25902L12 4.19412ZM12.445 2.86926C12.2593 2.50647 11.7408 2.50647 11.555 2.86926L9.0283 7.80321C8.95414 7.94804 8.81414 8.04772 8.65302 8.07042L3.03309 8.8622C2.61743 8.92076 2.45458 9.43452 2.76062 9.72184L6.80251 13.5165C6.92572 13.6322 6.98216 13.8023 6.95255 13.9686L5.99558 19.3469C5.92333 19.7529 6.34605 20.0669 6.71391 19.8804L11.7739 17.3155C11.916 17.2434 12.084 17.2434 12.2261 17.3155L17.2861 19.8804C17.654 20.0669 18.0767 19.7529 18.0044 19.3469L17.0475 13.9686C17.0179 13.8023 17.0743 13.6322 17.1975 13.5165L21.2394 9.72184C21.5454 9.43452 21.3826 8.92076 20.9669 8.8622L15.347 8.07042C15.1859 8.04772 15.0459 7.94804 14.9717 7.80321L12.445 2.86926Z" fill="#8D5CE6"/>
</svg>
