<svg width="16" height="16" viewBox="0 0 16 16" fill="none" xmlns="http://www.w3.org/2000/svg">
<path d="M7.55332 1.88812C7.73796 1.521 8.26204 1.52101 8.44668 1.88812L10.2002 5.37458C10.2737 5.52069 10.414 5.62162 10.5759 5.64485L14.4823 6.20523C14.8952 6.26445 15.0584 6.77338 14.7568 7.06159L11.943 9.75136C11.8224 9.86665 11.7672 10.0345 11.796 10.1989L12.4616 14.0075C12.5327 14.4148 12.1071 14.7275 11.7397 14.5379L8.22932 12.7261C8.08546 12.6519 7.91455 12.6519 7.77068 12.7261L4.2603 14.5379C3.89294 14.7275 3.46728 14.4148 3.53844 14.0075L4.20404 10.1989C4.23276 10.0345 4.17761 9.86665 4.057 9.75136L1.24315 7.06159C0.941648 6.77338 1.10478 6.26445 1.51765 6.20523L5.4241 5.64485C5.586 5.62162 5.7263 5.52069 5.79979 5.37458L7.55332 1.88812Z" fill="white"/>
</svg>
