<svg width="14" height="14" viewBox="0 0 14 14" fill="none" xmlns="http://www.w3.org/2000/svg">
<path d="M6.55332 0.888123C6.73796 0.521005 7.26204 0.521005 7.44668 0.888123L9.20021 4.37458C9.2737 4.52069 9.414 4.62162 9.5759 4.64485L13.4823 5.20523C13.8952 5.26445 14.0584 5.77338 13.7568 6.06159L10.943 8.75136C10.8224 8.86665 10.7672 9.03451 10.796 9.19887L11.4616 13.0075C11.5327 13.4148 11.1071 13.7275 10.7397 13.5379L7.22932 11.7261C7.08546 11.6519 6.91455 11.6519 6.77068 11.7261L3.2603 13.5379C2.89294 13.7275 2.46728 13.4148 2.53844 13.0075L3.20404 9.19887C3.23276 9.03451 3.17761 8.86665 3.057 8.75136L0.243153 6.06159C-0.0583524 5.77338 0.104778 5.26445 0.51765 5.20523L4.4241 4.64485C4.586 4.62162 4.7263 4.52069 4.79979 4.37458L6.55332 0.888123Z" fill="#371687"/>
</svg>
